<mxfile host="65bd71144e">
    <diagram id="94Ny2HNkRG7y_4s9MTm5" name="ページ1">
        <mxGraphModel dx="1519" dy="1041" grid="1" gridSize="10" guides="1" tooltips="1" connect="1" arrows="1" fold="1" page="1" pageScale="1" pageWidth="900" pageHeight="1600" background="#ffffff" math="0" shadow="0">
            <root>
                <mxCell id="0"/>
                <mxCell id="1" parent="0"/>
                <mxCell id="31" value="" style="rounded=0;whiteSpace=wrap;html=1;fillColor=none;strokeWidth=3;" vertex="1" parent="1">
                    <mxGeometry x="370" y="70" width="180" height="190" as="geometry"/>
                </mxCell>
                <mxCell id="27" value="" style="rounded=0;whiteSpace=wrap;html=1;fillColor=none;strokeWidth=3;" vertex="1" parent="1">
                    <mxGeometry x="360" y="560" width="180" height="190" as="geometry"/>
                </mxCell>
                <mxCell id="21" value="" style="rounded=0;whiteSpace=wrap;html=1;fillColor=none;strokeWidth=3;" vertex="1" parent="1">
                    <mxGeometry x="78.87" y="290" width="311.13" height="215" as="geometry"/>
                </mxCell>
                <mxCell id="2" value="社員" style="shape=actor;whiteSpace=wrap;html=1;verticalAlign=bottom;" parent="1" vertex="1">
                    <mxGeometry x="440" y="80" width="40" height="60" as="geometry"/>
                </mxCell>
                <mxCell id="4" value="" style="shape=image;verticalLabelPosition=bottom;labelBackgroundColor=default;verticalAlign=top;aspect=fixed;imageAspect=0;image=data:image/png,iVBORw0KGgoAAAANSUhEUgAAAOEAAADhCAMAAAAJbSJIAAAA6lBMVEX///82xfAutn3ssi7gHlocs3bfD1St3schwu/ssCDssCT99+uv5fjyy3zqeJbS7OD86e/R7/veAEvrrQ32/PqD2PVczfL23K0mtHrfAFDfElXv+v7eAEn++/Tx+vYPsXPhKWH66st11PS76fnY8vyR3Pa24s6p4/j41t/wpLfwwmP+9/rnXoP45cD75Orz0Iv78NtJvYtwyaGR1LXm9e6g2r88uoV+zqpgxJjL69zshZ/01JnnXYPlUnvtkKjvvVLyr8DpbI3jPm3ttz71wM7vm7D419/xx3H0uMf11ZnkRnP22qf56MbzzoXk83qRAAALZUlEQVR4nO2c6V/iPBDHy1Gk9QCpYgtiWUUU8WQVr/UCj/Vx/f//nacUlDZN2gnNQf3092pfmG2/zGSSJjOjKKlo1FrarWYcVbf3VutUI9euLy7P+tls/+pyocTp7WKrtZspFouZsZx/VZfWoEOve6atmmbWkWmqdrZ3zfNFZ9Rq9ZvuS8XMLsiQF33bhZvKtM/avF+YUvUqijdh3Isc2u6r2aAcxrly1iUsn8tYjTBjz8bwjRl/i3l5iNaJgCPG1ZCR51mTAOhIvQJPZM7Ce+gUcYc4sqSGADpm7G8JxCArAjAEsWSGAs4L4nYUoIPYwo7cCnPRCeKZYBqM9qIBHWHDzVkkoDMXL0UDoWqBAIvbmKG/catEQLbsxb8KAcROxXPSMoE6qtyAugMy4UiBoVcAH3X9VO6yCDShY8QlZGQJaEIHUWY8XQWbMFNFhvaAJnQIL6SwjbUNBkRXjC1QmHElc8WowwEzxV3f0DacMGvL24PD40zATeFOKtVNd2kIi75Vvw8HzJpXsgDhkdQl9H5jUExDR31phDSA/vUCvla4RpS1XtAEGiTU0AQaJ9ScJ49wgY5QVjCt0wSaTHE9gYR0Nkwg4dqPJ6SMpUkkpFsPk0hIt6dJIiHFx1NCCalCTSIJab4PE0pI46bJJKSJpgklpDBiQgkpjJhUQvjuO6mE8LOaxBKGX4/+CELI9VrCCYGISSaE7cATTeiEG8BFcKIJlbXoeJNwQkVpbUfYMfGEzuK/Vy0WyZg/gNBRfXVvfbtKUALPS2MoJUwJ518pYUo4/0oJU8L5V0rInbBeb63GUKseVWfBmHDrvFQqnUMzNupL227JSyxlMttLYZQMCUsXV1nTdqSa/d5CdNbGUrD0ZUYVi1Vykj4rwq2Lvu3J9zdV9WwhNON2L8MIbwKZITGyIdz6rQb+H1PNktPgWmz5XEZCyQwTwjahWkPtE34RqjtrOCOaHMyM8IqYOUYoKAIe7NIjrmMeFp/wHFsQ9iW1FxwRWfkyOyKmFCE2YWjB1AgxkLHJDxBrxbiE0eU2KCL0emVGxF30DeMSAspt/NU2VOnMsyCiFXoxCS8hw21PGSpdkuFMYkp4Dcu/9RRq8AqjU6F+Go8QOGwaUGHVWTER6+wIwYO/c4tp8n5mJtxlRwgeZ/aEzcKRmBG24Vnwk5kIq5GMK399XhxCimIUdcEdQZUlOru2GRGuUQwdl0zRZWvHECNC4FIxQRy5KVWSaAz5omkMwt8UFVPjGlsx0xCZiDEIaWrCxhORz2chhnCPDSGkAnxKOPpQFLEauoSM7oBpqt7GK6IwQjb3+Gs0A8eFfSkhM0I2tWuUhD1ZkeaailCdmdCNNFJWC2hDhYm2ZiYcnZ0KW/G95epbNCHfV65OR+iu+II+LTIZ32k7zapmXs5MOP64kLHzBjY2mbxme1bCifXFhBrk7Jum1NlX6ExFOKnkF3GIETjGUPpgNzV959d0hJMgLMJNA6fCF2A39ffgoSH8blUgIpoGWkWBP2SRxh80hNPfhr8RMQf7UCMibZQoCD3dJvjPRHQWwmeiidwiURB6N3u89zXYjm2wcKoil9ZwQtt3F8zz6olwhej4KQAx0OoLTIhePnEFRDsofSn6gsUO3MlDCc0+YnyOJ27FKjE7oheBiLmtBhJi+hESOpByBXSsGOqoQQtCCdUzXPoQnxsowhz80gXaftZjBhXXbg9EaPfwv+oSq2QhD19Ia8+xSqSMAxtrBgihai+QnlZfZ8tYDF5vY3RhBvNiTDVLaCQcSajal2FZUfVRP2dWeMBGycraqFWyB9JUQxolhxKapm1eRqa27axX4+btjVRdD+uui6r0+8y0VVd29uoi5CXXTJUkWz27vIb1kay3dpZiaadF1698pK3z6/bCQvv6POIdFwhqt0vz0LA2VapUqVKlSpUqFTN19x9fblbweiqHDi0/d+5XVm5eHve7lA9tnB59nHwuz67P241fi5AnlTt3tYplFQjaPCYPfV5pTkZaVqVw9xL+Y/jwNg5yhqbpsaRphvFwchrxqP2nilXLh6hCIuy+NCsF71/WrMrhPojvdNmBy7GRbjxshDyq/GczFC+EsFOwgn9c27wLMflEjWWDFd6EMXdEelYnko9EeDzA8I0Z7yMAN9jyuTIOGrhHdf9UIvkIhH8r5J/G+i805iwbzPkc6fqv4KPKgwLxLSMIX0J/mkKT7KmNB40HoCMj4KnlZrSHEgjvI2xfy5MQGw/sPZSICATEEHYinbvWJDgqR0AH0e+ohyAXxRHub0YPKvyHBVzm5aJjad71P9oOJMIu6KexcBH1iEuQmUp/mD6rDAYMEK7AjI/ZCjX4WtCR8fH9sCeojwYIXwE+OlLtLkB4wp0wp38ti69wE6KEf4ABKr+JbuAWOfvoSNoJvQkRQvhvUztECN/5m/DbiGUKQITwhsK9kS8NAXyOEce78EfCnhJA2IQPtF58gL8EOOl3OAXPpQDhPsUERmLNJ8/Ffip3TexS8CGELzTWr/k2Ng9CAHPGP+dZxzSv6Sc8pLK+N5ryXwzH0m6dhz3PTjigGWk9ekaeCpmGzkR8cx7WmZmQzr99oeZIkA3dUEM1mXyEZRonzRduPIQbgghzOedh97MT0iyk+cKKLEI6G26WfzqhxYZQ1DzMDRXKLU0+32VCKGZL40SaA4VuY5KvDRQmhCK+LFzCE9r3rD2xIWyIAZxsvWnWbd+yHYNQORCzLzXca4x7ihf1nUbEIRQUTIfuwygmYs13aBaHUMxE1Ccf+QPw3sTqsCIU46bG5K4Nvl5YXWaE/wQY0V0rXEE/1ZFjz1iEfA+8x5oeez8CZ6KlMCTkv+hPTagod6CZWPnLklB5421Ew3OsX4bMROsJecWYhLxXfcN33f0cfXbt27CxIOT8oa8t+58WeTdTywdSK+IScr2b0Q7Qp4Vf5GKvOWMTckQMAo4Caki4sQaY5Jj4hE5A5RNujDfMw5TXJjHebKJBhhWhsjjksEHVPfdqft3g002s/DP2z1kQKso7czMaD+TEqOOnCvrWNSv/QriGZ0OoLC4bDO2oG0NiwtCY8aY5zfuqFSzr7pGYD8OI0GF8Hxos8r503dDfMJk0qF47hwMHrpBv/rfyNyz7jhmho9ONt2FO12JIzw0P3v9hk6Fw6pbL5cj8SZaEIzUWYwkMBxdrwvlTSpgSzr9SwpRw/pUSpoTzrzh3T8StF4e91+yKQfhhkKQP3z6i6l6EidM9vq4Zw3dQBRN3ccxU0IzleXBXrrkYunErDexbnLNNjAfprso7n0bPyQ45/DOGNMChC08JyIky5FpRRNaXJnUuiiDUh9LwFEGZe9q7ND5RuYmGRD8VQ6hjr5HESFB+qcR4KohQ//zphLmctE24KEJD2s5GFOFX/t0PJnwgvsIPIZQ3EYURStucCiOUtiKmhD+AUFRllzRCYdV58j4vRFVY6tK2baKqZOV951OVnyKVzhQpUPoy6QW4K0a1+gkFoRbWvYuzaDoO+IpRqDL1ZZ63UXSNsJAMuSHcSTHpvsJ0DO/8gebg3oJjTbCplUiBo2mge0sD7KZST0yVY2gHnj+BodD2LXJN6MxE2IKxiclThUVTeZ+/XwKF00oHMxIWTmUeCI8FWRMLQR8dCdIpSraPjhRd+FYbENKNDyIRDWmHUF5FVNvka01isngUoiFvv+ZTJzSgFsiAUYiGvNNuRM8hfWsrh6EZ8SfkcKMbEvejqLp3BE8tYKOoV/90ghm1oew8Bb/+NjF2LFQiWkeP1DjRMIyaTipdkqfHQaXghaxZhadX0MjFk5y/9kk3hrfzkBIV0P79YNQoe6z8IbmcKKDG0dtQM8a1L4Y2/JScZBKm8v7ji6PO8zFtx3Jl8dfG7e3tB7DteKqp/gdu7d8L7XoZXwAAAABJRU5ErkJggg==;" parent="1" vertex="1">
                    <mxGeometry x="100" y="305" width="65" height="65" as="geometry"/>
                </mxCell>
                <mxCell id="10" style="edgeStyle=none;html=1;" parent="1" target="8" edge="1">
                    <mxGeometry relative="1" as="geometry">
                        <mxPoint x="450" y="240" as="sourcePoint"/>
                    </mxGeometry>
                </mxCell>
                <mxCell id="14" style="edgeStyle=none;html=1;" parent="1" source="7" edge="1">
                    <mxGeometry relative="1" as="geometry">
                        <mxPoint x="499.9999999999998" y="410" as="targetPoint"/>
                    </mxGeometry>
                </mxCell>
                <mxCell id="7" value="DB" style="strokeWidth=2;html=1;shape=mxgraph.flowchart.database;whiteSpace=wrap;" parent="1" vertex="1">
                    <mxGeometry x="590" y="380" width="60" height="60" as="geometry"/>
                </mxCell>
                <mxCell id="11" style="edgeStyle=none;html=1;entryX=1;entryY=0.5;entryDx=0;entryDy=0;" parent="1" source="8" edge="1" target="4">
                    <mxGeometry relative="1" as="geometry">
                        <mxPoint x="170" y="460" as="targetPoint"/>
                    </mxGeometry>
                </mxCell>
                <mxCell id="13" style="edgeStyle=none;html=1;" parent="1" source="8" edge="1">
                    <mxGeometry relative="1" as="geometry">
                        <mxPoint x="579.9999999999998" y="390" as="targetPoint"/>
                    </mxGeometry>
                </mxCell>
                <mxCell id="8" value="AWS(サーバー)" style="outlineConnect=0;dashed=0;verticalLabelPosition=bottom;verticalAlign=top;align=center;html=1;shape=mxgraph.aws3.traditional_server;fillColor=#7D7C7C;gradientColor=none;" parent="1" vertex="1">
                    <mxGeometry x="410" y="330" width="80" height="120" as="geometry"/>
                </mxCell>
                <mxCell id="9" value="" style="sketch=0;aspect=fixed;pointerEvents=1;shadow=0;dashed=0;html=1;strokeColor=none;labelPosition=center;verticalLabelPosition=bottom;verticalAlign=top;align=center;shape=mxgraph.mscae.enterprise.website_generic;fillColor=#7D7D7D;" parent="1" vertex="1">
                    <mxGeometry x="87.73" y="405" width="102.27" height="90" as="geometry"/>
                </mxCell>
                <mxCell id="12" style="edgeStyle=none;html=1;entryX=1.014;entryY=0.511;entryDx=0;entryDy=0;entryPerimeter=0;" parent="1" source="8" target="9" edge="1">
                    <mxGeometry relative="1" as="geometry"/>
                </mxCell>
                <mxCell id="15" value="&lt;b&gt;&lt;font style=&quot;font-size: 17px;&quot;&gt;2. 顔認証システム&lt;/font&gt;&lt;/b&gt;" style="text;html=1;align=center;verticalAlign=middle;resizable=0;points=[];autosize=1;strokeColor=none;fillColor=none;" parent="1" vertex="1">
                    <mxGeometry x="380" y="30" width="160" height="30" as="geometry"/>
                </mxCell>
                <mxCell id="16" value="Slckに着席状況を反映" style="text;html=1;align=center;verticalAlign=middle;resizable=0;points=[];autosize=1;strokeColor=none;fillColor=none;" parent="1" vertex="1">
                    <mxGeometry x="210" y="322.5" width="140" height="30" as="geometry"/>
                </mxCell>
                <mxCell id="17" value="ブラウザページに&lt;br&gt;社員の着席状況を可視化" style="text;html=1;align=center;verticalAlign=middle;resizable=0;points=[];autosize=1;strokeColor=none;fillColor=none;" parent="1" vertex="1">
                    <mxGeometry x="230" y="440" width="160" height="40" as="geometry"/>
                </mxCell>
                <mxCell id="18" value="ユーザー情報取得" style="text;html=1;align=center;verticalAlign=middle;resizable=0;points=[];autosize=1;strokeColor=none;fillColor=none;" parent="1" vertex="1">
                    <mxGeometry x="490" y="348" width="120" height="30" as="geometry"/>
                </mxCell>
                <mxCell id="22" value="&lt;b&gt;&lt;font style=&quot;font-size: 17px;&quot;&gt;3. ユーザーインターフェース機能&lt;/font&gt;&lt;/b&gt;" style="text;html=1;align=center;verticalAlign=middle;resizable=0;points=[];autosize=1;strokeColor=none;fillColor=none;" vertex="1" parent="1">
                    <mxGeometry x="100" y="260" width="280" height="30" as="geometry"/>
                </mxCell>
                <mxCell id="23" value="" style="sketch=0;aspect=fixed;pointerEvents=1;shadow=0;dashed=0;html=1;strokeColor=none;labelPosition=center;verticalLabelPosition=bottom;verticalAlign=top;align=center;shape=mxgraph.mscae.enterprise.website_generic;fillColor=#7D7D7D;" vertex="1" parent="1">
                    <mxGeometry x="410" y="580" width="102.27" height="90" as="geometry"/>
                </mxCell>
                <mxCell id="24" style="edgeStyle=none;html=1;entryX=0.381;entryY=0;entryDx=0;entryDy=0;entryPerimeter=0;exitX=0.5;exitY=1;exitDx=0;exitDy=0;exitPerimeter=0;" edge="1" parent="1" source="8" target="23">
                    <mxGeometry relative="1" as="geometry">
                        <mxPoint x="420" y="418" as="sourcePoint"/>
                        <mxPoint x="201" y="516" as="targetPoint"/>
                    </mxGeometry>
                </mxCell>
                <mxCell id="25" value="社員" style="shape=actor;whiteSpace=wrap;html=1;verticalAlign=bottom;" vertex="1" parent="1">
                    <mxGeometry x="400" y="680" width="40" height="60" as="geometry"/>
                </mxCell>
                <mxCell id="26" value="管理者" style="shape=actor;whiteSpace=wrap;html=1;verticalAlign=bottom;" vertex="1" parent="1">
                    <mxGeometry x="472.27" y="680" width="40" height="60" as="geometry"/>
                </mxCell>
                <mxCell id="28" value="&lt;b&gt;&lt;font style=&quot;font-size: 17px;&quot;&gt;1. 管理機能&lt;/font&gt;&lt;/b&gt;" style="text;html=1;align=center;verticalAlign=middle;resizable=0;points=[];autosize=1;strokeColor=none;fillColor=none;" vertex="1" parent="1">
                    <mxGeometry x="395" y="760" width="110" height="30" as="geometry"/>
                </mxCell>
                <mxCell id="30" value="" style="group" vertex="1" connectable="0" parent="1">
                    <mxGeometry x="394.37" y="159.99999999999997" width="131.26999999999998" height="62.53999999999999" as="geometry"/>
                </mxCell>
                <mxCell id="5" value="小型カメラ" style="sketch=0;outlineConnect=0;fontColor=#232F3E;gradientColor=none;fillColor=#232F3D;strokeColor=none;dashed=0;verticalLabelPosition=bottom;verticalAlign=top;align=center;html=1;fontSize=12;fontStyle=0;aspect=fixed;pointerEvents=1;shape=mxgraph.aws4.camera2;" parent="30" vertex="1">
                    <mxGeometry y="2.842170943040401e-14" width="62.9" height="50" as="geometry"/>
                </mxCell>
                <mxCell id="29" value="Raspberry Pi" style="shape=image;verticalLabelPosition=bottom;labelBackgroundColor=default;verticalAlign=top;aspect=fixed;imageAspect=0;image=data:image/png,iVBORw0KGgoAAAANSUhEUgAAAMcAAAD+CAMAAAC5ruGRAAAA7VBMVEUAAAC8EUL///91qSi/EUPEEkV3rCl6sCrCEUR6sSq3EUC6EUGwED6rDzyMDTGPDTJzpieaDjalDzp+Cyz29vZtnSWfDjitED1jCSO+vr5pmCSWDjWDDC7o6OhWfB3JyclMBxsvBBFJBxpgiyEUHQc1TBLk5ORYfx4jAwxcCCByCigOAQU7BRVeXl6lpaU8PDxMbho7VhQbAwlQUFB6enrNzc20tLQJDQMSGgYYGBgrBA9rCiYtQQ/Z2dkYIghDYRclNQ0+WhVHR0eHh4dra2s1NTWUlJRPchspOw4fLQsqKiqAgIANEwQcHBypqansMwSTAAAbI0lEQVR4nL1daUPbOrN2iGM7gYRAEpawBULKDgm0dAEKLXtf2v//c668SBpJo83JufPhHAq2pEejWTWSgzlnulu/3tlKf1g/C4Kr8y33N51p6/wq+H62nv74aed6/c79zcD1wfMgp887z8VPZ1/mujvn5+td//FK1F0/P9/pzn05K1p+3vlc/HTu2oQDjrv19Z27i0BPj9NgIPQ/Q9sXd258seJ4NHTC6PzuugRjUjZc353bm3eYKhsOEx8UevJB0n3yafqiJI7rz8/2xlVyl8y7Ms0/P1174XjBm/nKfrr9ij/hDEQL4/YD6Q7SizOOro4Vk972qOiiva1B4gZEgVG0dtsb5z/8vB/2P+SHcnrGVq+Mo7u11VVkgg35th5Hw9v0p4d6lPf4ayw9fPX72Sgn3afn31fSO/vDfPD9ej/r775Xz3/KSMZzkQ7ShKP7+Bedgdf2cJyNPhjF1SjuTchPPfL/n+mv6n2EM+taGOvIDE3q2+n/7uMoJk1/3Y7jarWXA5xs99vv2Jj+PgpQII5rFERK43pEGHFPxt2uEor770FUrUZRusriqPqQPtP/Bt/QKUpRjY/v0/9u16NX8r8hGX20HYwj0nQ1In8Zbfdi0rpmeQUBlHmAY0d86mEyHo/vR/vZP/pp01Hcf037qKY8yf5fH5NuCa7b7JGf8PUnFIaoa8f1UTH+avC1lzUd9eKs5Wp/uxqnv0k5lI3m/pWMRugi2EFxSGiH9YiMPI7bw1/7Qb8Yf/4/TvEw+00KhDwi9HKGwDgTeniN00FmMKJ+W266+Ddp+u21TwaSjqZ+K44Rw/FFZtuwmBnSRk/uRO4t+vlAJKctLAGVIzI3yPCD7Ri2g1C7HdPpi9+kIX5BcPyTcQQH+sYV6qWCE2XCycRS1vTMKmV8m9QzPnj0kcshpH96HOODg4NhSv1+z6OLnKJUWb4OaTc7Agwmfz9j8p/b2Lv1ar+fjWxIRvigxVF0854uxJz8OyLyQgSl/kpHDFVjl/7yox2PgvcyrVfpyOKhPFGB0s99iYkCQF4/4mr9V9HWFcDBbF8vioa5/i5NbWWegMhTZeK1ZBWK0tXIBJLbQ2b/Ug0XKdrJi+LCOwIqEeCgPb1NxZCc6ITx5ukvpmN3RlFfmSWI4y+csWm7orJOdRa14+8zmKSYWpG/GA4el41m0ddEWMJMyPWWyJ16bKTnCI7v7K9TCmFOUeE9PgrsGM9giqJ7NtC/Ko4tDiPYliatX0IHRweAIZQd+/4woqgt2bF4n4+0q+D4lP/h4fV+MpINeXt73It9odQfOO+pJfeVPOJlH4yVlyajyX0R9XxS1xVdU3GsDjlq/3p/rfpBYVqFt/1Q90NR70/eh2qvZIT1e9a2jOPM2FfcngQj4gJ7DKNeGJEvzCPxYUcUV1+/BQf43NE5OkNwUH/3XjNpcW8UfIzb7kyhuveJ+rnv7uyI6kNi67Y1nUXUPGH+LrPnY113cZ8s+VHfmSn1Ih6hy8rZf46jV/LqWKddovY3mR1CXEs17y+dViGzRHTFu4bZ6uOFv0iTtY5vxb108U/a2lH0CpX+fQ7HwbTZmz5sirOxjatOCpR5JxlNXN4hsp1a67ee9uGYhQUBjgPE5/t6SxhVM2f2l3a6YJcPEIeDlEfxQfrKN4NCibZ5i19QHIWfmIVz94Y+416miCb6KWN9CrktFxSZRI1N6zbj8X4eQON+YsGPUZ3EgsYhEjHJVujIhiQaAhg2D5GgyMR3ZOP0cNgrPCw8X0Kdh4PY6oZEhY9j4wkUELN4EBSZu/FzaOdyFBeKsIviYOkMl0Aq7uVr3ywnMcAxNrRKOJxnJ4xLilK98KVhQgbiYK6ii3Md1Q/o+PRPxyDHKDuf8LF+bvpvXZRHlfokwZYGB0/MOEUJUTUPL7/q7UkMUrNaK5i6PPkTTvaewRD2DsV8O8v3mQWdNZnLe/Cuexy62Bp+RHGh1EaGXBxskgZoYr5S2jdgvdrFLRtEtWj1Fz4Iu3zEwwLq0M35YjGtPHDhX13eraMzxKzrAQa8B3Bg0TJdmq7MgCnFrgFHIenv7/vvvxwbjqrFDN2quRwWE2ZipOKI6d/dJCM1SLc/fxb9bRlwFPz42qt7xEx16ilsy6OJhfS47JdE7eLPD+7ZrIiHUCZ+zP0p+vTKxRUbU8S7kwYEl1XqKIhvUWb4ZbRorvKPST548sdNzguKmBIRpETerYCTwyTDryeWSpQrNuR9Tpb9efWKpdnamnCrGG8HIn3jOGK6qfjulSGN2F7h9zkzjk98GXgle2KaVdinLlc8DGRiGVdqM9xiErUTkCjR4ABA9t2MYUF8qvIdJgQGAZKp16hK09heTGcWE4GB1AEAG3LvM1l86U7SzWme9IP0QeaGrSlPIezz7Ud1fx6pZ8gf/bq//z7qewFhns97dShsQkOatJlR8dugiMZvP/cL448MWv1VoXuH9dg3i1mXaxtM9OGbso7iej1n+R8nHLSsS5v/0ZOiovT0zX8rh4ng/5xwMEl/cwoHygHZ94YRMd2uSjle78Pr7JzCMxHIKzpsmT68YWRJQC078PorXvDzVZea1FIdV1QS+coGi7UCTWkcXkcGKpe+uWYPaY8TZNgK+amquP2Lv4pX+Gnq+mAFxTefuoZq5ALDzzfsARSa+httfSIok3rwwRG5CToSjLjh0BV2aetFC6311vYJRcgS+IkPXCZD9gRptE6TM4imsuDgG94++1CO7CAM8eFxnekq/Wi1f+GVa5O+PcNYUBsdNEbazQkZRFzdZtkjfTmyHgfwF4P9+z6ya6iSmGA3E5qYUEEcjMA7+vpNQz21WBH5cT+0dlsfBR5k1729bTGi1FdvGuvCRSDBg63f2AuG3W2PpBDGAMNc374F6gnfXm29th/8YCAJFrnJ3oQnJM+MB04sdfpbLzSDkkmIXtyjOhb/2ciw15GVi0VF3Vvw58VybMZ+/uM37fRjND7o99IUkppwi/u3mqFa6BWZmpgEPu3+cPuelVX+to7SjkOpv/x4e40kFENPyQD0VdmS700UW/rPOkqH8zjflb757mFa4dsbO9pwHY0OqtBAqTZITvKUw7ElN3tfz4sdyQLrb0+0kbgPvY2HWWFLRj15XhyOlLmc8+qKxwPGWenp9vjX7ZR8kOlhdP+6nRXdCvXGVy6nfNzOq9191vVtpsPB8WZrcbG1eXy0WxLcZ7cDJc7n7j7JZzZsdLK20aglSZhRktTCleNTXxBXWv+2LI7umb1XSEcrBEJFoDCpLXQu/ZoxGz9/HE6H4zgdN2QQBSXJhidTHE9COuHY8ju7tjafoCByrtSW/ETl2YklLjjUkwiXe2tUgNcGh+LfdpsGFDmSTS8gDlbQCYckGafHS/NJwgWYSPAP8OfjGr6ihNXV4IvrcK2zuNJcaMw3FppLrePBCQIEOxLji2NLOPq1u0l0kDzQGljyKxZm0FeO6Qvz2YTkjMqmZaE1UIB8t64tGw7hoN9gGZ3sBfbAZcPOjALIRvFKU3kjTCotRRnYrIgFBzz7tdfEl0yNzd/lvCsMsrZW8nfWMAaGteU9CciOeaBmHBDGhmbhhxvsEWduZEA2dAwpkOz6ADHiAItqUNGMMWywZ5Z9YDAZOdRIVFjreCwtEw7g6HZq2mllyurGTcQBkPzVI13byYKo0k3CbsLBA48l7RC5cAR+3CAUFiKyqWs9TAYQhykMMeDgdkOvTGs37CFvdpC3d63TtAaBGOyIHgc/bWvoBizhDW9+VBJqRXBZV4HoTtEbcPB0opbtlaQF+ljyxxEu0ZcX9ECEpaUNqbQ4WOSkFcNKsgi7aJXAscLe1qvsBOrfz7442GbnpZ4bAozgyF8+OD+CEy0QoNgD/caBDgcTcq1REBZVSt4wKiEQLwMQOF86UdfgYOzQrirV+T72Zgh0MA1AatBH0TBEg4NJR0PXtmRsU9JrHZyAeGSkFfYF8BC26azHQd/SGQXudzvNKE6JFIFpJyK5AQ/54GC2Q8MOUaszOvQCImrUjJY10wZFHbchOA4q5QO83UQdQcER3UCwRo6QBjY0HYJncUnHcbBmsfkNK4aUR0eTKFFG1sAb2UT1SrgMHnHHwcIONMZZMOagfqw4BOhhok013KBAaqBPNBBBcdCtWsy0JSto94BOlxLj6iJBeEuWcECoPU2AXkE3bY11MoirUZOtH0aHnQU1G0FB1JrHWE4EzAMSHUMV7V4nQ99YUOflBusZod3jpfkiu5sPpEiGLK7ZM6MnSAYsAX93xcGMudycUcJVSrPtS8vNBqHV5ZXFztqemRGcNhQhSYBNx0w6hoPuN+9JOJKm6zic6eTwEOXPsQwECgi2/4zhoMdypJSMbzrTQj9uFleJtNRqSaXZWpMFf0/Ka0BnEbvJC8NBnasObCoMMbtF6HSts7ixtLS4eSOnnEx00ySaIGRtp1sKIhTJpEILggUhGA5qzRcBjqSJ8f/kZqlSKzK9qRivOKqBTqiqs7C2Ik6EmKMBrglm0TEcdJeAW3Mll5TRYEneq7GYBvqeZl8hrC0LemQPKmCgsJ4dcdB8zwptJllA9NQAT5MaTHVBLW2gTJCIMSbQWwAHlv/BcNDni1AwTBBm7OIp66xHjetEWzUb+8oAPnzExD0B67oMDrJskZXSMTpRNYOY6DMj9GVx1haLnmCw4o8jrDURLXRp23JCxSkjh5hR8uBO8/U7BY61sLGI6dK90DoYHRBNfCEBaYovHREkYQ3YYDccthsz9QktCASNGNdcXiVreVV677SzAZcqknlHcFg2Z/EAQZ1UZFf2xDXsDZvqy4AQxavi0N+i6DOlJNxS33VPASdL6tuA1BhdwaFc2yfSwBGG6NnltOv8Lnlbqyky+mLDYbqbmNAPj1xbKL+86JVNMXtrchpLOpdqK1zwSezIU3ril2+cN4/k2XAuVakYU2bUbyjiy54bPeEiPgZGWzocnywveghHRlKGasVnWVWk7C9Gn3AcAjd215BWdMleDYEd6ZR809iS8v2xXJNT/FsYDljPTnzSpKYkeDreI4Fvy1GynWqQnyepE5HMD4QRYfcnAhHfywIEWYd7ymnaAuSp/7aCwJDC9ojB9bOKA1Qg0kBMUn2b3htnQpaoxL4bGMAlFc0Epkj5KSOKA9Tks+1ZaX2X2P+D69lXzMUBcG6GDRhhr4s4gHAAn1xY3/7rQtyoWfV+HQaBYBZEIF0BB9/zhwECTH4hyUU7QR/LU9nlA2Bes5C6gdshZxAHd6oE7kMX6dTPduQEOyyDg23oHgq9C9sIXwAOVvMm7vlDk9rxX94VwaKXwcFWtrShBHMZfzkO5qpLIRJc376bmAqOMuuSaW652gyq0muGgyZ6lDgHrO8yy0pYVyX0FdfcipIBLX+nOJjOVeIc/rRmp9BCUM5L1NFwza2sauhMrxc46LaNKspc8ZbQupLeLSVgrERLeTnheYeLHAfLK6glGDX2rFcMxEYBXe8S9ScVxlEVRwhE/S7DQXcDEc3KcZRb3TC0PZxGwhCfCBjpxwyHYQFzHOW0zQDgmErxIjgSkFlKcdBlhbmzyXSDgJt6ZZdm/i4iXFD47ggOuvuEhp3syfkyYxADoVICosdRARnGF4KDaiusLo/r3VI4pERDGX409JMMwuaLOXapLNoL1/9l1lVNSimWiEAqq3pewqhgLqDicYo9yf2x1RLRg5Kl9ddY1FHEzDBctncB9a0wzoH6wRJ6V60Z8Cwcr3ArsYtWuvCWrwMq5ljUCjjnH9Sq+cRgz5shTAawN0HxzEtAb/jAJhzYMf9qaSxD682QGt29wV4EYd5TQI8FYn450Ag+OeacVHaUaIUpGkw+gZm9Cuj5ckwhwbjWV/Gq6faU9LXZKHHNjVkFYNH/sJ8wHHAvy9caC9XDgbEbPXHNjRlCgOO7sQOY8vYMQHRpfy/dC/Q+dvwowfbuEBxCOO83k/piAKWSx0CgohQzb0IenHIEcWiFNJqXxlJMICCnLdu8FTiPGA7O8+9MQhCVKBkyD0kPTUVvzspX2DhA9GmNn798ZnoXiT4ScevAdYdTyt+p5Jh6EQ0Q4pyBsOAqQIutcpItgOtE1jSVWrwhl6Ulef2IoIMsxmfml6gepSjmhC7dcFhhmE4q8d4bYhGhGhbDNPpLQJM+P9TnFMfCaV9NWzQOSX+Oj3ZekatzFH0JxXc9YJuCihgjq9wuIuG8W0npnvkIa9hQiowUQwzDm0+BPs2AOUi2ogx7tTUfl6H0CWtGWfjQYyDx4JnmuRAtjRiYan1CJeQ4Xeu0NlZWsipMuWj2VFeKFoZo/ZY8PmBqzwgOlqSWGkWtPpE3be1VWNsQzMZpp8mO2+fF1JsDsa09rKY/TFp4mbAUWcBldU1wsK0oaQEmuqLjmwp+1HpFOO3UadQU1oVJZfOH0NYPsRI+DGsN7ZUaouYVtGk3zcNRSyi6cPLhJUjH80qdaKUFkwqXLd2RA/Waid2bjdWwlt6PkDRWOiYtITQJnaurLJ/I0u2CnUOPyzAaLLI7VsgAFlriw8bDLHJNaEYnu6en1oJZuGCEsqj1PN9O/ymGz7ZWD4+ON1utzY4iwKcN24UZFbulxAguGOFwVbFvwD4zAYIuS/2TgVwcc4wlDsQlXVCmL3Q/iv4COB5aKbeRm1sul1K6EWdICIfH9tUYQ5i9Ls0O1wNrsvvkRtRWC6vqhe/Xst/RAitNdD0zGPLxX1fKvRnxFCbYd+ZVGflArKVPGnKP9cwxI6CTtc2NjdZNocx2U00oFgev4/UMy0SbIictncgn9uYXf5hobTk/lpHUVnID+mO5JnJDqGeA9SWbzcWSd4f55qE1p1sBCnD9VKgJa8T6Evmj4aXIWoIvU2iU9dMF6VwTNr30UCSrv3pEHiJt3Wyml7s53SJWolDMtLI2ZR8SK7JmZyJ5PRxy/9vxfLY6U8+j80P9s0Qldmn0+uRwQZ0VdWXx7y6DOss/0kOX0L8g7uzADMO7erGii3ECTZijMAR8HwDgkFeWtNzl00sy+aOogH0BkTSKT5aQRxSHVKCvpsZRT5VSuXIFNZeRku4Elfz0NYpDrKZGq0Ol00uQSpXBiJU0rCltxCktLLR+F3gnKWm0j/a8cykU6MIyXM0mea9zOA54ib7+zgf8kG2psr8KlgUw3TAn5sZ03+2DAqIvOsYPPZe4bSlvTd5gMKYaQ8SzUnHAynDTtg2WMSyxn5uPTEoDmD1N0XB2NTj4Fc6W+UVcnZJiLgt6y8xWQdB/z+lwgFtEzdVrKpBS9VkpCcdV7A4zePifFgfQvJZaEAWIf6lCQTD7aj/RB5/WnmOBC8u2PSsnsWeB49DhrCdXlsKyknDwG1Gt28yh6CPMYl057FMBc/PPgINrLGuNkRRfz0DOXfx+gMP4/UEW39qrVEVfdXq9q7sPUoNDuhRAwsESDg6TI4Slpe0g83OcViaXj3UjDuZjubivMCyd2i9xq2niWkEet/Rvun3rUpkjlBmXXFdsobhtRjOhlO/MkHGs+4wLhqVT+u1uRxP5pod8F4uMg217uhgE6BxNGUe52R++Aqzfg6QPOpXVQ4aUgcGWlaN48aIuZdjyL2g5r9OxRah7p8ozOK5K5kUod0cpONjBbaeW4T1hJXAwfjq+yypKlNsHFRz6Qy0YwcDGnyGMHY7Wh8ujcuWSgoO5Jm4FcFOdSGN3qzh6mXx7Xrn3Vb2fgfm8TvVWUNK989R0WCeOLzJr/lsZtYqD+bxOGkuImP1WFj+HjN59jvTFolr1SwEqDrawLl1mSdyNcahH4m9yT9dRW3HeO32/9syr+ZqQBnIPp+AGoVvFIJdy5AIsBAc7pKqWZCEk1Qu473Nyje3UD8zuKrd+mO/xcmKInHN1W1rJKmCjm0vDS2ld7/FiJkR/pzPAIe/FWEvdKuArDfkbTgqFi5PrfX18J8ThSiJ123XPWpcRislQJznk9wUhX0XW4ODHuC15sYxkHOmWg7FOZkPKELsoBxB8ItJhu3/XJbypBSodLuqQSGVaGTmcTQQ3fvjcvwsyvdabcDAcRLQ6jQSpIwtbyKar3Z+BRWP4VfSa6555IutS98EMMw5Ce5urYl1fA/lijBMOWGyl+eiP9f724NACJEFGRulk72ZzcWV5eWVj83ig3by2rSsIw/P+drg5ZfnoDbYz5kcWGRRK37TD1f0BXlpkup5Pu3XsTma9K1y8UuJ7wvBrqYYrKPFzUF5kzPkJe8T6L6YavmMCP+N1pC0/1uyA+5AhVyZWNhs+7GX6rswLaOJkCS9+nsGyMghI0oRqGrt31wWHACTYW8WQKHf7lyFNEi4MhTVrgmH5fpT4hbgjpSC9dMWZRJj8JdJZMfPX4sw45LKs/PNqIV27looTD5LvXQ2T+Y7ohU31PS/5M3EplJvF5nxSS4u4j811c6dHx62l5sJ8bs/nF5ZTY6grfzpsVZjtT2qNxYH4Z+uH4mw4pCoHRyJgV4tv+8Hlnn2mc7kzwF/aO25lpr9zpIB9so7SjkP+7LaVjhbna6qPCOAkyfKx13c6TR/adsch3Llmo8GG8n1RDEtiLUvj9DTD79c6fvT1Rvd9UQRKbcEJydVsv1975yAmxu+LYkjsNvTJDYU7DhJbWb79erLsf9TeUuR+7rKifHFY7u20hSk4EOOxA1de+OJQPp0KyfNbRQUZbqd1+EhqaRz6y5LL7EZVTN8T0X/abhY45rYu8G5L1snoDrFeuH7XuSwO3aeey9bJ4DAcP+o8FY65rd9Iz45bGDI70GXlzYxyOHAp8T5sUNGpK0/JmALHXFf1VNAbeGw4EC/rs7vNmB4H9nl6p2v2BUrU6MX9A/QzwjE390XWXO73NxQwBopgoCno/xgHQSIJvBdHQuWY/u/yKKbDQbxH0cA7fIiCwWhIweSZjxcyaxxECQs5FeuHQdiaksqoX0qo2pniILQDXXrzh1rYmhISOk+WHML/Ew7RxJ/aWVJbFgJwf+ON0ExwiHmuG3M4lTTEnWpzXsqVZoNDykUo9wWAFdWQXBGHHIILzQiH/DGataZ6O0N6+0JTPrYynZbiNCscc13p2N5uJ/uCGs09ptm1pnII8c+0aorRzHAgCbuTo87SaiONdxurS50jNRa3p9ecaYY4vBN2MxKNjGaJY67rk0N1Sq8500xxEJdLPtyqoz/TOFMIzRgHibG+20EE30vFSiaaOQ4iJljcC+liloJR0H+AgwRZ+GH2nB7LhkpG+k9wELo7x1LbVy+zsnsy/Vc4Uvq0fv74dPb74s/F77Onx/P1/4QRBf0fcDt/1HATl7UAAAAASUVORK5CYII=;" vertex="1" parent="30">
                    <mxGeometry x="82.26999999999998" width="49" height="62.54" as="geometry"/>
                </mxCell>
                <mxCell id="32" value="ユーザー・デバイスの管理&lt;br&gt;ユーザー情報の編集" style="text;html=1;align=center;verticalAlign=middle;resizable=0;points=[];autosize=1;strokeColor=none;fillColor=none;" vertex="1" parent="1">
                    <mxGeometry x="450" y="500" width="170" height="40" as="geometry"/>
                </mxCell>
            </root>
        </mxGraphModel>
    </diagram>
</mxfile>